# xmcd CD database file
# Copyright (C) 1993-1998 Ti Kan
# 
# Track frame offsets:
#     150
#     2142
#     21832
#     39367
#     52360
#     76432
#     106572
#     128880
#     137320
#     157732
# 
# Disc length: 2510 seconds
# 
# Revision: 1
# Processed by: cddbd v1.4b41PL1 Copyright (c) Steve Scherf et al.
# Submitted via: DiscPlay 4.0.4
# 
DISCID=6f09cc0a
DTITLE=Richard Norton - I Can Stand A Little Rain
DYEAR=1900
DGENRE=
TTITLE0=Shower
TTITLE1=I Can Stand A Little Rain
TTITLE2=Watch Your Step
TTITLE3=Tombstone Sunset
TTITLE4=Welcome to the Real World
TTITLE5=My Old Pal (The Blues)
TTITLE6=The Gangster's Back In Town
TTITLE7=Pay Day Rag
TTITLE8=My Wicked Ways
TTITLE9=I'm Guilty
EXTD=
EXTT0=
EXTT1=
EXTT2=
EXTT3=
EXTT4=
EXTT5=
EXTT6=
EXTT7=
EXTT8=
EXTT9=
PLAYORDER=
